<?xml version='1.0' encoding='UTF-8'?>
<svg width="32.4mm" height="32.4mm" version="1.1" viewBox="0 0 32.4 32.4" xmlns="http://www.w3.org/2000/svg"><path d="M1.2,1.2H2.4V2.4H1.2zM2.4,1.2H3.6V2.4H2.4zM3.6,1.2H4.8V2.4H3.6zM4.8,1.2H6V2.4H4.8zM6,1.2H7.2V2.4H6zM7.2,1.2H8.4V2.4H7.2zM8.4,1.2H9.6V2.4H8.4zM10.8,1.2H12V2.4H10.8zM14.4,1.2H15.6V2.4H14.4zM15.6,1.2H16.8V2.4H15.6zM16.8,1.2H18V2.4H16.8zM18,1.2H19.2V2.4H18zM19.2,1.2H20.4V2.4H19.2zM22.8,1.2H24V2.4H22.8zM24,1.2H25.2V2.4H24zM25.2,1.2H26.4V2.4H25.2zM26.4,1.2H27.6V2.4H26.4zM27.6,1.2H28.8V2.4H27.6zM28.8,1.2H30V2.4H28.8zM30,1.2H31.2V2.4H30zM1.2,2.4H2.4V3.6H1.2zM8.4,2.4H9.6V3.6H8.4zM12,2.4H13.2V3.6H12zM14.4,2.4H15.6V3.6H14.4zM15.6,2.4H16.8V3.6H15.6zM22.8,2.4H24V3.6H22.8zM30,2.4H31.2V3.6H30zM1.2,3.6H2.4V4.8H1.2zM3.6,3.6H4.8V4.8H3.6zM4.8,3.6H6V4.8H4.8zM6,3.6H7.2V4.8H6zM8.4,3.6H9.6V4.8H8.4zM10.8,3.6H12V4.8H10.8zM14.4,3.6H15.6V4.8H14.4zM16.8,3.6H18V4.8H16.8zM19.2,3.6H20.4V4.8H19.2zM20.4,3.6H21.6V4.8H20.4zM22.8,3.6H24V4.8H22.8zM25.2,3.6H26.4V4.8H25.2zM26.4,3.6H27.6V4.8H26.4zM27.6,3.6H28.8V4.8H27.6zM30,3.6H31.2V4.8H30zM1.2,4.8H2.4V6H1.2zM3.6,4.8H4.8V6H3.6zM4.8,4.8H6V6H4.8zM6,4.8H7.2V6H6zM8.4,4.8H9.6V6H8.4zM12,4.8H13.2V6H12zM13.2,4.8H14.4V6H13.2zM18,4.8H19.2V6H18zM19.2,4.8H20.4V6H19.2zM20.4,4.8H21.6V6H20.4zM22.8,4.8H24V6H22.8zM25.2,4.8H26.4V6H25.2zM26.4,4.8H27.6V6H26.4zM27.6,4.8H28.8V6H27.6zM30,4.8H31.2V6H30zM1.2,6H2.4V7.2H1.2zM3.6,6H4.8V7.2H3.6zM4.8,6H6V7.2H4.8zM6,6H7.2V7.2H6zM8.4,6H9.6V7.2H8.4zM13.2,6H14.4V7.2H13.2zM15.6,6H16.8V7.2H15.6zM18,6H19.2V7.2H18zM19.2,6H20.4V7.2H19.2zM22.8,6H24V7.2H22.8zM25.2,6H26.4V7.2H25.2zM26.4,6H27.6V7.2H26.4zM27.6,6H28.8V7.2H27.6zM30,6H31.2V7.2H30zM1.2,7.2H2.4V8.4H1.2zM8.4,7.2H9.6V8.4H8.4zM10.8,7.2H12V8.4H10.8zM16.8,7.2H18V8.4H16.8zM18,7.2H19.2V8.4H18zM20.4,7.2H21.6V8.4H20.4zM22.8,7.2H24V8.4H22.8zM30,7.2H31.2V8.4H30zM1.2,8.4H2.4V9.6H1.2zM2.4,8.4H3.6V9.6H2.4zM3.6,8.4H4.8V9.6H3.6zM4.8,8.4H6V9.6H4.8zM6,8.4H7.2V9.6H6zM7.2,8.4H8.4V9.6H7.2zM8.4,8.4H9.6V9.6H8.4zM10.8,8.4H12V9.6H10.8zM13.2,8.4H14.4V9.6H13.2zM15.6,8.4H16.8V9.6H15.6zM18,8.4H19.2V9.6H18zM20.4,8.4H21.6V9.6H20.4zM22.8,8.4H24V9.6H22.8zM24,8.4H25.2V9.6H24zM25.2,8.4H26.4V9.6H25.2zM26.4,8.4H27.6V9.6H26.4zM27.6,8.4H28.8V9.6H27.6zM28.8,8.4H30V9.6H28.8zM30,8.4H31.2V9.6H30zM13.2,9.6H14.4V10.8H13.2zM14.4,9.6H15.6V10.8H14.4zM15.6,9.6H16.8V10.8H15.6zM20.4,9.6H21.6V10.8H20.4zM1.2,10.8H2.4V12H1.2zM3.6,10.8H4.8V12H3.6zM8.4,10.8H9.6V12H8.4zM9.6,10.8H10.8V12H9.6zM14.4,10.8H15.6V12H14.4zM16.8,10.8H18V12H16.8zM19.2,10.8H20.4V12H19.2zM20.4,10.8H21.6V12H20.4zM24,10.8H25.2V12H24zM27.6,10.8H28.8V12H27.6zM30,10.8H31.2V12H30zM1.2,12H2.4V13.2H1.2zM4.8,12H6V13.2H4.8zM7.2,12H8.4V13.2H7.2zM14.4,12H15.6V13.2H14.4zM20.4,12H21.6V13.2H20.4zM22.8,12H24V13.2H22.8zM26.4,12H27.6V13.2H26.4zM28.8,12H30V13.2H28.8zM30,12H31.2V13.2H30zM3.6,13.2H4.8V14.4H3.6zM4.8,13.2H6V14.4H4.8zM6,13.2H7.2V14.4H6zM8.4,13.2H9.6V14.4H8.4zM9.6,13.2H10.8V14.4H9.6zM10.8,13.2H12V14.4H10.8zM16.8,13.2H18V14.4H16.8zM19.2,13.2H20.4V14.4H19.2zM20.4,13.2H21.6V14.4H20.4zM24,13.2H25.2V14.4H24zM25.2,13.2H26.4V14.4H25.2zM26.4,13.2H27.6V14.4H26.4zM27.6,13.2H28.8V14.4H27.6zM30,13.2H31.2V14.4H30zM3.6,14.4H4.8V15.6H3.6zM6,14.4H7.2V15.6H6zM10.8,14.4H12V15.6H10.8zM12,14.4H13.2V15.6H12zM13.2,14.4H14.4V15.6H13.2zM14.4,14.4H15.6V15.6H14.4zM20.4,14.4H21.6V15.6H20.4zM22.8,14.4H24V15.6H22.8zM24,14.4H25.2V15.6H24zM26.4,14.4H27.6V15.6H26.4zM1.2,15.6H2.4V16.8H1.2zM2.4,15.6H3.6V16.8H2.4zM4.8,15.6H6V16.8H4.8zM8.4,15.6H9.6V16.8H8.4zM9.6,15.6H10.8V16.8H9.6zM15.6,15.6H16.8V16.8H15.6zM16.8,15.6H18V16.8H16.8zM20.4,15.6H21.6V16.8H20.4zM22.8,15.6H24V16.8H22.8zM30,15.6H31.2V16.8H30zM3.6,16.8H4.8V18H3.6zM4.8,16.8H6V18H4.8zM7.2,16.8H8.4V18H7.2zM9.6,16.8H10.8V18H9.6zM12,16.8H13.2V18H12zM13.2,16.8H14.4V18H13.2zM18,16.8H19.2V18H18zM20.4,16.8H21.6V18H20.4zM22.8,16.8H24V18H22.8zM24,16.8H25.2V18H24zM28.8,16.8H30V18H28.8zM30,16.8H31.2V18H30zM1.2,18H2.4V19.2H1.2zM2.4,18H3.6V19.2H2.4zM4.8,18H6V19.2H4.8zM7.2,18H8.4V19.2H7.2zM8.4,18H9.6V19.2H8.4zM14.4,18H15.6V19.2H14.4zM18,18H19.2V19.2H18zM19.2,18H20.4V19.2H19.2zM26.4,18H27.6V19.2H26.4zM27.6,18H28.8V19.2H27.6zM30,18H31.2V19.2H30zM9.6,19.2H10.8V20.4H9.6zM12,19.2H13.2V20.4H12zM13.2,19.2H14.4V20.4H13.2zM21.6,19.2H22.8V20.4H21.6zM24,19.2H25.2V20.4H24zM25.2,19.2H26.4V20.4H25.2zM26.4,19.2H27.6V20.4H26.4zM1.2,20.4H2.4V21.6H1.2zM2.4,20.4H3.6V21.6H2.4zM3.6,20.4H4.8V21.6H3.6zM4.8,20.4H6V21.6H4.8zM6,20.4H7.2V21.6H6zM8.4,20.4H9.6V21.6H8.4zM9.6,20.4H10.8V21.6H9.6zM13.2,20.4H14.4V21.6H13.2zM15.6,20.4H16.8V21.6H15.6zM16.8,20.4H18V21.6H16.8zM19.2,20.4H20.4V21.6H19.2zM20.4,20.4H21.6V21.6H20.4zM21.6,20.4H22.8V21.6H21.6zM22.8,20.4H24V21.6H22.8zM24,20.4H25.2V21.6H24zM25.2,20.4H26.4V21.6H25.2zM28.8,20.4H30V21.6H28.8zM10.8,21.6H12V22.8H10.8zM15.6,21.6H16.8V22.8H15.6zM20.4,21.6H21.6V22.8H20.4zM25.2,21.6H26.4V22.8H25.2zM30,21.6H31.2V22.8H30zM1.2,22.8H2.4V24H1.2zM2.4,22.8H3.6V24H2.4zM3.6,22.8H4.8V24H3.6zM4.8,22.8H6V24H4.8zM6,22.8H7.2V24H6zM7.2,22.8H8.4V24H7.2zM8.4,22.8H9.6V24H8.4zM10.8,22.8H12V24H10.8zM14.4,22.8H15.6V24H14.4zM15.6,22.8H16.8V24H15.6zM16.8,22.8H18V24H16.8zM18,22.8H19.2V24H18zM19.2,22.8H20.4V24H19.2zM20.4,22.8H21.6V24H20.4zM22.8,22.8H24V24H22.8zM25.2,22.8H26.4V24H25.2zM30,22.8H31.2V24H30zM1.2,24H2.4V25.2H1.2zM8.4,24H9.6V25.2H8.4zM12,24H13.2V25.2H12zM14.4,24H15.6V25.2H14.4zM18,24H19.2V25.2H18zM19.2,24H20.4V25.2H19.2zM20.4,24H21.6V25.2H20.4zM25.2,24H26.4V25.2H25.2zM30,24H31.2V25.2H30zM1.2,25.2H2.4V26.4H1.2zM3.6,25.2H4.8V26.4H3.6zM4.8,25.2H6V26.4H4.8zM6,25.2H7.2V26.4H6zM8.4,25.2H9.6V26.4H8.4zM14.4,25.2H15.6V26.4H14.4zM16.8,25.2H18V26.4H16.8zM19.2,25.2H20.4V26.4H19.2zM20.4,25.2H21.6V26.4H20.4zM21.6,25.2H22.8V26.4H21.6zM22.8,25.2H24V26.4H22.8zM24,25.2H25.2V26.4H24zM25.2,25.2H26.4V26.4H25.2zM28.8,25.2H30V26.4H28.8zM1.2,26.4H2.4V27.6H1.2zM3.6,26.4H4.8V27.6H3.6zM4.8,26.4H6V27.6H4.8zM6,26.4H7.2V27.6H6zM8.4,26.4H9.6V27.6H8.4zM12,26.4H13.2V27.6H12zM13.2,26.4H14.4V27.6H13.2zM15.6,26.4H16.8V27.6H15.6zM16.8,26.4H18V27.6H16.8zM19.2,26.4H20.4V27.6H19.2zM20.4,26.4H21.6V27.6H20.4zM21.6,26.4H22.8V27.6H21.6zM25.2,26.4H26.4V27.6H25.2zM27.6,26.4H28.8V27.6H27.6zM28.8,26.4H30V27.6H28.8zM1.2,27.6H2.4V28.8H1.2zM3.6,27.6H4.8V28.8H3.6zM4.8,27.6H6V28.8H4.8zM6,27.6H7.2V28.8H6zM8.4,27.6H9.6V28.8H8.4zM10.8,27.6H12V28.8H10.8zM12,27.6H13.2V28.8H12zM14.4,27.6H15.6V28.8H14.4zM16.8,27.6H18V28.8H16.8zM21.6,27.6H22.8V28.8H21.6zM24,27.6H25.2V28.8H24zM25.2,27.6H26.4V28.8H25.2zM26.4,27.6H27.6V28.8H26.4zM28.8,27.6H30V28.8H28.8zM30,27.6H31.2V28.8H30zM1.2,28.8H2.4V30H1.2zM8.4,28.8H9.6V30H8.4zM12,28.8H13.2V30H12zM13.2,28.8H14.4V30H13.2zM20.4,28.8H21.6V30H20.4zM21.6,28.8H22.8V30H21.6zM24,28.8H25.2V30H24zM25.2,28.8H26.4V30H25.2zM1.2,30H2.4V31.2H1.2zM2.4,30H3.6V31.2H2.4zM3.6,30H4.8V31.2H3.6zM4.8,30H6V31.2H4.8zM6,30H7.2V31.2H6zM7.2,30H8.4V31.2H7.2zM8.4,30H9.6V31.2H8.4zM10.8,30H12V31.2H10.8zM14.4,30H15.6V31.2H14.4zM15.6,30H16.8V31.2H15.6zM16.8,30H18V31.2H16.8zM19.2,30H20.4V31.2H19.2zM20.4,30H21.6V31.2H20.4zM22.8,30H24V31.2H22.8zM26.4,30H27.6V31.2H26.4zM30,30H31.2V31.2H30z" id="qr-path" fill="#000000" fill-opacity="1" fill-rule="nonzero" stroke="none" /></svg>