<svg width="485" height="103" viewBox="0 0 485 103" fill="none" xmlns="http://www.w3.org/2000/svg">
<path d="M226.911 20.6824H244.192L262.444 65.2467H263.22L281.472 20.6824H298.752V87.0106H285.161V43.839H284.611L267.459 86.6867H258.204L241.053 43.677H240.503V87.0106H226.911V20.6824Z" fill="black"/>
<path d="M143.525 20.6824H160.806L179.057 65.2467H179.834L198.085 20.6824H215.366V87.0106H201.775V43.839H201.224L184.073 86.6867H174.818L157.667 43.677H157.117V87.0106H143.525V20.6824Z" fill="black"/>
<path d="M133.157 53.8268C133.157 61.0599 131.787 67.2134 129.047 72.2873C126.328 77.3612 122.618 81.2369 117.915 83.9142C113.233 86.5699 107.969 87.8977 102.123 87.8977C96.2329 87.8977 90.9473 86.5591 86.2658 83.8818C81.5842 81.2045 77.8843 77.3288 75.166 72.2549C72.4477 67.181 71.0886 61.0383 71.0886 53.8268C71.0886 46.5938 72.4477 40.4403 75.166 35.3664C77.8843 30.2924 81.5842 26.4276 86.2658 23.7719C90.9473 21.0946 96.2329 19.7559 102.123 19.7559C107.969 19.7559 113.233 21.0946 117.915 23.7719C122.618 26.4276 126.328 30.2924 129.047 35.3664C131.787 40.4403 133.157 46.5938 133.157 53.8268ZM118.95 53.8268C118.95 49.1415 118.249 45.1904 116.847 41.9733C115.466 38.7562 113.514 36.3164 110.989 34.6539C108.465 32.9913 105.51 32.1601 102.123 32.1601C98.7355 32.1601 95.7799 32.9913 93.2557 34.6539C90.7316 36.3164 88.7684 38.7562 87.366 41.9733C85.9853 45.1904 85.295 49.1415 85.295 53.8268C85.295 58.5121 85.9853 62.4633 87.366 65.6804C88.7684 68.8975 90.7316 71.3373 93.2557 72.9998C95.7799 74.6623 98.7355 75.4936 102.123 75.4936C105.51 75.4936 108.465 74.6623 110.989 72.9998C113.514 71.3373 115.466 68.8975 116.847 65.6804C118.249 62.4633 118.95 58.5121 118.95 53.8268ZM108.627 14.7036L102.123 6.80123L95.6181 14.7036H83.8711V14.2502L96.9772 0H107.236L120.374 14.2502V14.7036H108.627Z" fill="black"/>
<path d="M0 103V75.8628H4.49221C6.02194 74.7631 7.42239 73.2105 8.69356 71.2051C9.96474 69.1782 11.0528 66.3858 11.9577 62.8279C12.8626 59.2484 13.509 54.5692 13.8968 48.7902L15.7712 20.7797H59.5622V75.8628H66.8015V102.935H53.3571V87.0217H13.4443V103H0ZM20.6513 75.8628H46.1179V32.3268H28.3753L27.3411 48.7902C27.061 53.1676 26.5978 57.0489 25.9514 60.4344C25.3266 63.8198 24.5617 66.7847 23.6568 69.3291C22.7735 71.852 21.7716 74.0299 20.6513 75.8628Z" fill="black"/>
<path d="M431.839 87.1642L402.402 51.4799L372.966 87.1642H319.805V85.1168L379.117 20.7679H425.541L485 85.1168V87.1642H431.839Z" fill="black"/>
</svg>
