<svg width="513" height="109" viewBox="0 0 513 109" fill="none" xmlns="http://www.w3.org/2000/svg">
<path d="M240.011 21.8872H258.29L277.595 69.0474H278.416L297.722 21.8872H316V92.0792H301.624V46.3927H301.042L282.9 91.7364H273.111L254.969 46.2213H254.388V92.0792H240.011V21.8872Z" fill="white"/>
<path d="M151.811 21.8872H170.089L189.395 69.0474H190.216L209.521 21.8872H227.8V92.0792H213.423V46.3927H212.842L194.7 91.7364H184.911L166.769 46.2213H166.187V92.0792H151.811V21.8872Z" fill="white"/>
<path d="M140.844 56.9624C140.844 64.6168 139.395 71.1287 136.497 76.4982C133.622 81.8677 129.697 85.9691 124.722 88.8024C119.77 91.6128 114.202 93.018 108.018 93.018C101.789 93.018 96.1979 91.6014 91.2461 88.7681C86.2943 85.9348 82.3807 81.8334 79.5055 76.4639C76.6303 71.0944 75.1926 64.5939 75.1926 56.9624C75.1926 49.308 76.6303 42.796 79.5055 37.4265C82.3807 32.057 86.2943 27.9671 91.2461 25.1567C96.1979 22.3234 101.789 20.9068 108.018 20.9068C114.202 20.9068 119.77 22.3234 124.722 25.1567C129.697 27.9671 133.622 32.057 136.497 37.4265C139.395 42.796 140.844 49.308 140.844 56.9624ZM125.817 56.9624C125.817 52.0042 125.076 47.8228 123.593 44.4183C122.132 41.0138 120.067 38.4319 117.397 36.6725C114.727 34.9132 111.601 34.0335 108.018 34.0335C104.436 34.0335 101.309 34.9132 98.6395 36.6725C95.9697 38.4319 93.8931 41.0138 92.4099 44.4183C90.9494 47.8228 90.2192 52.0042 90.2192 56.9624C90.2192 61.9206 90.9494 66.1019 92.4099 69.5064C93.8931 72.9109 95.9697 75.4929 98.6395 77.2522C101.309 79.0116 104.436 79.8913 108.018 79.8913C111.601 79.8913 114.727 79.0116 117.397 77.2522C120.067 75.4929 122.132 72.9109 123.593 69.5064C125.076 66.1019 125.817 61.9206 125.817 56.9624ZM114.898 15.5601L108.018 7.19741L101.138 15.5601H88.7131V15.0803L102.576 0H113.427L127.324 15.0803V15.5601H114.898Z" fill="white"/>
<path d="M0 109V80.282H4.75156C6.36959 79.1182 7.85089 77.4752 9.19546 75.353C10.54 73.208 11.6909 70.2529 12.648 66.4877C13.6052 62.6997 14.2889 57.748 14.6991 51.6324L16.6817 21.9902H63.0009V80.282H70.658V108.932H56.4376V92.0909H14.2205V109H0ZM21.8435 80.282H48.7804V34.2099H30.0134L28.9195 51.6324C28.6233 56.2647 28.1333 60.3722 27.4496 63.9548C26.7888 67.5374 25.9797 70.6751 25.0226 73.3677C24.0882 76.0376 23.0285 78.3423 21.8435 80.282Z" fill="white"/>
<path d="M456.77 92.2418L425.634 54.4787L394.498 92.2418H338.268V90.0751L401.004 21.9777H450.109L513 90.0751V92.2418H456.77Z" fill="white"/>
</svg>
